<?xml version="1.0" encoding="UTF-8" standalone="no"?>
<!DOCTYPE svg PUBLIC "-//W3C//DTD SVG 1.1//EN" "http://www.w3.org/Graphics/SVG/1.1/DTD/svg11.dtd">
<svg width="100%" height="100%" viewBox="0 0 32 32" version="1.1" xmlns="http://www.w3.org/2000/svg" xmlns:xlink="http://www.w3.org/1999/xlink" xml:space="preserve" xmlns:serif="http://www.serif.com/" style="fill-rule:evenodd;clip-rule:evenodd;">
    <g transform="matrix(1,0,0,1,0,-1)">
        <g transform="matrix(-1,0,0,1,34,4.00081)">
            <path d="M7.5,5.498L7.5,21.498L24.5,21.5L24.5,7.499L14.5,7.499L14.5,5.499L7.5,5.498Z" style="fill:rgb(255,203,112);fill-rule:nonzero;stroke:black;stroke-width:1px;"/>
        </g>
        <g transform="matrix(-0.941176,0,0,0.117638,33.0588,9.47163)">
            <path d="M24.487,21.605L13.875,21.5L13.875,4.5L7.5,4.498L7.5,21.498M7.5,21.498L7.52,38.26L24.487,38.262L24.487,21.605" style="fill:rgb(220,140,0);"/>
        </g>
        <g transform="matrix(-0.941176,0,0,0.117638,33.0588,9.47163)">
            <path d="M24.487,21.605L7.52,21.603" style="fill:none;"/>
        </g>
        <g transform="matrix(1,0,0,1,2.5,-1.99919)">
            <path d="M7,27.5L3,17.5L20,17.5L24,27.5L7,27.5Z" style="fill:rgb(255,203,112);stroke:black;stroke-width:1px;stroke-linecap:square;stroke-miterlimit:1.5;"/>
        </g>
    </g>
</svg>
